<svg width="24" height="24" viewBox="0 0 24 24" fill="none" xmlns="http://www.w3.org/2000/svg">
<path d="M16.7915 7.46582C16.7962 7.46582 16.8025 7.46582 16.8087 7.46582C16.9721 7.46582 17.1238 7.51663 17.248 7.60419L17.2457 7.60262C17.3364 7.68158 17.3974 7.79259 17.4122 7.91766V7.92001C17.4278 8.01538 17.4364 8.12482 17.4364 8.23661C17.4364 8.28743 17.4349 8.33746 17.431 8.38749V8.38045C17.2551 10.2324 16.4921 14.7235 16.1044 16.7966C15.9402 17.6745 15.6173 17.9685 15.3046 17.9966C14.6253 18.0599 14.1094 17.5479 13.4511 17.1164C12.4208 16.4402 11.8384 16.0196 10.8386 15.3606C9.68239 14.6 10.4321 14.1802 11.0903 13.4969C11.2631 13.3171 14.2579 10.5928 14.3165 10.3457C14.3197 10.3309 14.3212 10.3145 14.3212 10.2973C14.3212 10.2363 14.2986 10.1808 14.2618 10.1386C14.2212 10.112 14.1703 10.0971 14.1172 10.0971C14.082 10.0971 14.0484 10.1042 14.0171 10.1159L14.0187 10.1151C13.9155 10.1386 12.2697 11.2262 9.08124 13.3781C8.73336 13.6525 8.29403 13.826 7.8156 13.8464H7.81091C7.13315 13.7643 6.51792 13.6134 5.93396 13.3984L5.99181 13.4172C5.25854 13.178 4.67615 13.0521 4.72618 12.6472C4.75276 12.4366 5.04304 12.2211 5.59703 12.0007C9.00958 10.5138 11.2852 9.53378 12.4239 9.06056C13.6802 8.39374 15.1366 7.84496 16.668 7.48927L16.7907 7.46504L16.7915 7.46582ZM11.951 0.418457C5.46101 0.434092 0.205391 5.69909 0.205391 12.1914C0.205391 18.6931 5.47586 23.9644 11.9784 23.9644C18.4808 23.9644 23.7513 18.6939 23.7513 12.1914C23.7513 5.69909 18.4957 0.434092 12.0073 0.418457H12.0057C11.9875 0.418457 11.9692 0.418457 11.951 0.418457Z" fill="white"/>
</svg>
