<svg width="28" height="28" viewBox="0 0 22 22" fill="none" xmlns="http://www.w3.org/2000/svg">
    <g clip-path="url(#clip0_3535_388)">
        <path d="M17.9657 15.297H7.44611C6.20274 15.297 5.13652 14.4095 4.91081 13.1868L2.88636 2.38933C2.79857 2.00033 2.44748 1.71898 2.048 1.71898H0.859367C0.384739 1.71898 0 1.33424 0 0.859611C0 0.384983 0.384739 0.000244141 0.859367 0.000244141H2.048C3.25562 0.000244141 4.31583 0.857333 4.56887 2.03815L4.57325 2.05985L4.79939 3.26579H21.1404C21.6694 3.26579 22.0757 3.74102 21.9881 4.26644L20.5087 13.1427C20.3007 14.3909 19.2312 15.297 17.9657 15.297ZM5.12161 4.98457L6.60054 12.8724C6.67625 13.2824 7.03164 13.5782 7.44611 13.5782H17.9657C18.3875 13.5782 18.744 13.2763 18.8134 12.8602L20.126 4.98457H5.12161ZM8.03143 11.1563L7.39614 7.71882C7.18959 6.60147 8.87945 6.28763 9.08626 7.40644L9.72154 10.8439C9.92809 11.9614 8.23836 12.2761 8.03143 11.1563ZM15.6619 10.8588L16.2351 7.4213C16.4219 6.30073 18.1176 6.58162 17.9304 7.70399L17.3572 11.1415C17.167 12.2823 15.4763 11.972 15.6619 10.8588Z" fill="#fff"/>
        <path d="M7.56248 22C6.14091 22 4.98438 20.8434 4.98438 19.4219C4.98438 18.0003 6.14091 16.8438 7.56248 16.8438C8.98404 16.8438 10.1406 18.0003 10.1406 19.4219C10.1406 20.8434 8.98404 22 7.56248 22ZM7.56248 18.5625C7.08862 18.5625 6.70311 18.948 6.70311 19.4219C6.70311 19.8957 7.08862 20.2812 7.56248 20.2812C8.03633 20.2812 8.42184 19.8957 8.42184 19.4219C8.42184 18.948 8.03633 18.5625 7.56248 18.5625Z" fill="#fff"/>
        <path d="M17.875 22C16.4534 22 15.2969 20.8434 15.2969 19.4219C15.2969 18.0003 16.4534 16.8438 17.875 16.8438C19.2965 16.8438 20.4531 18.0003 20.4531 19.4219C20.4531 20.8434 19.2965 22 17.875 22ZM17.875 18.5625C17.4011 18.5625 17.0156 18.948 17.0156 19.4219C17.0156 19.8957 17.4011 20.2812 17.875 20.2812C18.3488 20.2812 18.7343 19.8957 18.7343 19.4219C18.7343 18.948 18.3488 18.5625 17.875 18.5625Z" fill="#fff"/>
        <path d="M11.8594 10.9999V7.56246C11.8594 6.42629 13.5781 6.42465 13.5781 7.56246V10.9999C13.5781 12.136 11.8594 12.1377 11.8594 10.9999Z" fill="#fff"/>
    </g>
    <defs>
        <clipPath id="clip0_3535_388">
            <rect width="28" height="28" fill="#fff"/>
        </clipPath>
    </defs>
</svg>
