<svg width="17" height="17" viewBox="0 0 17 17" fill="none" xmlns="http://www.w3.org/2000/svg">
    <path fill-rule="evenodd" clip-rule="evenodd" d="M3.40091 2.2666C2.77499 2.2666 2.26758 2.77402 2.26758 3.39993V13.5999C2.26758 14.2259 2.77499 14.7333 3.40091 14.7333H13.6009C14.2269 14.7333 14.7342 14.2259 14.7342 13.5999V9.63327C14.7342 9.32031 14.4805 9.0666 14.1676 9.0666C13.8547 9.0666 13.6009 9.32031 13.6009 9.63327V13.5999H3.40091V3.39993H7.36758C7.68054 3.39993 7.93424 3.14623 7.93424 2.83327C7.93424 2.52031 7.68054 2.2666 7.36758 2.2666H3.40091ZM14.5683 2.43258C14.6226 2.48691 14.6636 2.54953 14.6913 2.61636C14.7185 2.68218 14.7338 2.75427 14.7342 2.82987V2.83327V6.23327C14.7342 6.54623 14.4805 6.79993 14.1676 6.79993C13.8547 6.79993 13.6009 6.54623 13.6009 6.23327V4.20133L7.76827 10.034C7.54697 10.2553 7.18818 10.2553 6.96689 10.034C6.74558 9.81266 6.74558 9.45387 6.96689 9.23258L12.7995 3.39993H10.7676C10.4546 3.39993 10.2009 3.14623 10.2009 2.83327C10.2009 2.52031 10.4546 2.2666 10.7676 2.2666H14.1675C14.2443 2.2666 14.3176 2.28189 14.3845 2.3096C14.4514 2.33725 14.5139 2.37825 14.5683 2.43258Z" fill="#ADADAD" stroke="#ADADAD"/>
</svg>
