<svg width="28" height="21" viewBox="0 0 28 21" fill="none" xmlns="http://www.w3.org/2000/svg">
    <path fill-rule="evenodd" clip-rule="evenodd" d="M22.1485 1.77087C19.5473 0.551821 16.2594 1.2991 14.4215 3.47773L22.1485 1.77087ZM14.4215 3.47773C12.5865 1.2991 9.31075 0.552764 6.69358 1.76993L6.68981 1.77182C5.05478 2.54174 3.81885 3.92686 3.33108 5.71298C2.84425 7.4991 3.13012 9.5862 4.33681 11.7384C5.95956 14.6473 8.78241 16.8515 13.2478 20.3378L13.8394 20.8002C14.0052 20.9297 14.2096 21.0001 14.4201 21.0001C14.6305 21.0001 14.8349 20.9297 15.0008 20.8002L15.5923 20.3378C20.0568 16.8524 22.8796 14.6483 24.5024 11.7403C25.7195 9.58904 26.0119 7.50098 25.5251 5.71298C25.0364 3.92403 23.7929 2.53986 22.1485 1.77087M21.3493 3.47868C19.1586 2.45305 16.2726 3.43905 15.2782 5.61485C15.203 5.77931 15.0821 5.91871 14.93 6.01645C14.7779 6.11419 14.6009 6.16616 14.4201 6.16616C14.2393 6.16616 14.0623 6.11419 13.9101 6.01645C13.758 5.91871 13.6372 5.77931 13.562 5.61485C12.5685 3.43999 9.70323 2.45211 7.49081 3.47962C6.32374 4.02971 5.48406 4.99117 5.15102 6.21022C4.81892 7.43022 4.96893 9.00876 5.98315 10.8166L5.98409 10.8185C7.38797 13.3349 9.84663 15.2852 14.4205 18.8593C18.9935 15.2852 21.4522 13.3349 22.8561 10.8185L22.8589 10.8128C23.8825 9.00498 24.0363 7.42739 23.7042 6.21022C23.3721 4.99306 22.5287 4.03065 21.3503 3.47962H21.3484L21.3493 3.47868Z" fill="white"/>
    <rect x="1.29883" width="30.6523" height="2.39213" rx="1.19607" transform="rotate(32.8906 1.29883 0)" fill="white"/>
</svg>
