<svg width="60" height="60" viewBox="0 0 60 60" fill="none" xmlns="http://www.w3.org/2000/svg">
<path d="M7.26562 33.5781V29.3438H22.1094V33.5781H7.26562ZM12.3906 39.2031V23.7344H16.9844V39.2031H12.3906Z" fill="#019DFF"/>
<path d="M28.9531 42.0625L23.5938 19.25H28.5781L31.8906 34.1875C31.9531 34.4688 32 34.7188 32.0312 34.9375C32.0625 35.1458 32.0938 35.4062 32.125 35.7188H32.25C32.2812 35.4062 32.3125 35.1458 32.3438 34.9375C32.3854 34.7188 32.4375 34.4688 32.5 34.1875L36.0781 19.25H41.2344L44.9375 34.1875C45 34.4583 45.0469 34.7031 45.0781 34.9219C45.1094 35.1302 45.1406 35.3958 45.1719 35.7188H45.2812C45.3229 35.3958 45.3594 35.1302 45.3906 34.9219C45.4219 34.7031 45.4635 34.4583 45.5156 34.1875L48.7031 19.25H53.2188L47.9219 42.0625H42.5469L38.7656 27.1094C38.7031 26.849 38.6458 26.5885 38.5938 26.3281C38.5521 26.0573 38.5104 25.7656 38.4688 25.4531H38.375C38.3333 25.7656 38.2917 26.0521 38.25 26.3125C38.2083 26.5729 38.151 26.8385 38.0781 27.1094L34.3125 42.0625H28.9531Z" fill="white"/>
</svg>
