<svg width="60" height="60" viewBox="0 0 60 60" fill="none" xmlns="http://www.w3.org/2000/svg">
<path d="M7.26562 32.5781V28.3438H22.1094V32.5781H7.26562ZM12.3906 38.2031V22.7344H16.9844V38.2031H12.3906ZM28.9531 41.0625L23.5938 18.25H28.5781L31.8906 33.1875C31.9531 33.4688 32 33.7188 32.0312 33.9375C32.0625 34.1458 32.0938 34.4062 32.125 34.7188H32.25C32.2812 34.4062 32.3125 34.1458 32.3438 33.9375C32.3854 33.7188 32.4375 33.4688 32.5 33.1875L36.0781 18.25H41.2344L44.9375 33.1875C45 33.4583 45.0469 33.7031 45.0781 33.9219C45.1094 34.1302 45.1406 34.3958 45.1719 34.7188H45.2812C45.3229 34.3958 45.3594 34.1302 45.3906 33.9219C45.4219 33.7031 45.4635 33.4583 45.5156 33.1875L48.7031 18.25H53.2188L47.9219 41.0625H42.5469L38.7656 26.1094C38.7031 25.849 38.6458 25.5885 38.5938 25.3281C38.5521 25.0573 38.5104 24.7656 38.4688 24.4531H38.375C38.3333 24.7656 38.2917 25.0521 38.25 25.3125C38.2083 25.5729 38.151 25.8385 38.0781 26.1094L34.3125 41.0625H28.9531Z" fill="white"/>
</svg>
