<svg width="142" height="60" viewBox="0 0 142 60" fill="none" xmlns="http://www.w3.org/2000/svg">
<path d="M9.76562 32.5781V28.3438H24.6094V32.5781H9.76562ZM14.8906 38.2031V22.7344H19.4844V38.2031H14.8906ZM31.4531 41.0625L26.0938 18.25H31.0781L34.3906 33.1875C34.4531 33.4688 34.5 33.7188 34.5312 33.9375C34.5625 34.1458 34.5938 34.4062 34.625 34.7188H34.75C34.7812 34.4062 34.8125 34.1458 34.8438 33.9375C34.8854 33.7188 34.9375 33.4688 35 33.1875L38.5781 18.25H43.7344L47.4375 33.1875C47.5 33.4583 47.5469 33.7031 47.5781 33.9219C47.6094 34.1302 47.6406 34.3958 47.6719 34.7188H47.7812C47.8229 34.3958 47.8594 34.1302 47.8906 33.9219C47.9219 33.7031 47.9635 33.4583 48.0156 33.1875L51.2031 18.25H55.7188L50.4219 41.0625H45.0469L41.2656 26.1094C41.2031 25.849 41.1458 25.5885 41.0938 25.3281C41.0521 25.0573 41.0104 24.7656 40.9688 24.4531H40.875C40.8333 24.7656 40.7917 25.0521 40.75 25.3125C40.7083 25.5729 40.651 25.8385 40.5781 26.1094L36.8125 41.0625H31.4531Z" fill="white"/>
<path d="M56.9062 34.7031V33.9375H61.8438V34.4844C61.8333 35.5781 62.1562 36.401 62.8125 36.9531C63.4688 37.4948 64.3854 37.7656 65.5625 37.7656C66.7188 37.7656 67.6042 37.5156 68.2188 37.0156C68.8438 36.5052 69.1562 35.8281 69.1562 34.9844C69.1562 34.1719 68.8385 33.5312 68.2031 33.0625C67.5677 32.5833 66.2656 32.0677 64.2969 31.5156C61.9219 30.8281 60.1458 29.9323 58.9688 28.8281C57.8021 27.724 57.2188 26.2604 57.2188 24.4375C57.2188 22.4167 57.9583 20.8177 59.4375 19.6406C60.9271 18.4531 62.9167 17.8594 65.4062 17.8594C67.8958 17.8594 69.8958 18.4427 71.4062 19.6094C72.9167 20.776 73.6719 22.3698 73.6719 24.3906V25.0312H68.8125V24.5938C68.8125 23.6667 68.526 22.9271 67.9531 22.375C67.3906 21.8229 66.5625 21.5469 65.4688 21.5469C64.3438 21.5469 63.5208 21.776 63 22.2344C62.4792 22.6823 62.2188 23.2812 62.2188 24.0312C62.2188 24.7604 62.5365 25.3333 63.1719 25.75C63.8073 26.1562 65.1302 26.6458 67.1406 27.2188C69.4427 27.875 71.1823 28.7656 72.3594 29.8906C73.5365 31.0052 74.1302 32.5625 74.1406 34.5625C74.1406 36.7188 73.3594 38.401 71.7969 39.6094C70.2344 40.8073 68.1667 41.4062 65.5938 41.4062C63.0417 41.4062 60.9531 40.8385 59.3281 39.7031C57.7135 38.5573 56.9062 36.8906 56.9062 34.7031ZM75.1094 28.9688V25.4062H85.4531V28.9688H75.1094ZM77.4688 36.25V26.7188L77.5469 26.375V21.1406H82.3438V35.6406C82.3438 36.5052 82.4792 37.0833 82.75 37.375C83.0312 37.6667 83.4375 37.8125 83.9688 37.8125C84.2292 37.8125 84.4792 37.7865 84.7188 37.7344C84.9583 37.6823 85.1927 37.6146 85.4219 37.5312V40.9531C85.151 41.0677 84.7604 41.1719 84.25 41.2656C83.7396 41.3594 83.1406 41.4062 82.4531 41.4062C80.9115 41.4062 79.6927 40.9948 78.7969 40.1719C77.9115 39.349 77.4688 38.0417 77.4688 36.25ZM86.6406 33.4375V32.9219C86.6406 30.4948 87.4062 28.5573 88.9375 27.1094C90.4792 25.6615 92.5 24.9375 95 24.9375C97.5104 24.9375 99.5312 25.6615 101.062 27.1094C102.604 28.5573 103.375 30.4948 103.375 32.9219V33.4375C103.375 35.8646 102.604 37.8021 101.062 39.25C99.5312 40.6979 97.5104 41.4219 95 41.4219C92.5 41.4219 90.4792 40.6979 88.9375 39.25C87.4062 37.8021 86.6406 35.8646 86.6406 33.4375ZM91.6562 32.7031V33.6406C91.6562 34.9635 91.9427 35.9948 92.5156 36.7344C93.099 37.4635 93.9271 37.8281 95 37.8281C96.0833 37.8281 96.9115 37.4635 97.4844 36.7344C98.0677 35.9948 98.3594 34.9635 98.3594 33.6406V32.7031C98.3594 31.3906 98.0677 30.375 97.4844 29.6562C96.901 28.9271 96.0729 28.5625 95 28.5625C93.9375 28.5625 93.1146 28.9271 92.5312 29.6562C91.9479 30.375 91.6562 31.3906 91.6562 32.7031ZM106.031 41V25.4062H110.875L110.938 27.2812H110.984C111.349 26.6458 111.833 26.1146 112.438 25.6875C113.052 25.25 113.75 25.0312 114.531 25.0312C114.781 25.0312 115.026 25.0573 115.266 25.1094C115.516 25.151 115.693 25.1927 115.797 25.2344V29.2031C115.609 29.1406 115.396 29.0938 115.156 29.0625C114.917 29.0312 114.656 29.0156 114.375 29.0156C113.677 29.0156 113.026 29.2292 112.422 29.6562C111.818 30.0833 111.359 30.6354 111.047 31.3125V41H106.031ZM116.828 33.4219V32.9219C116.828 30.5052 117.578 28.5729 119.078 27.125C120.578 25.6667 122.531 24.9375 124.938 24.9375C127.333 24.9375 129.198 25.6302 130.531 27.0156C131.875 28.3906 132.547 30.2812 132.547 32.6875V34.2656H119.844V31.4844H127.734V31.2344C127.734 30.4323 127.495 29.7656 127.016 29.2344C126.536 28.6927 125.833 28.4219 124.906 28.4219C123.875 28.4219 123.089 28.8021 122.547 29.5625C122.005 30.3229 121.734 31.3177 121.734 32.5469V33.5781C121.734 34.9219 122.026 35.9792 122.609 36.75C123.193 37.5104 124.047 37.8906 125.172 37.8906C125.964 37.8906 126.641 37.7083 127.203 37.3438C127.776 36.9688 128.229 36.5208 128.562 36L132.344 37.7188C131.833 38.8333 130.979 39.7344 129.781 40.4219C128.583 41.099 127.068 41.4375 125.234 41.4375C122.599 41.4375 120.536 40.7135 119.047 39.2656C117.568 37.8073 116.828 35.8594 116.828 33.4219Z" fill="#019DFF"/>
</svg>
