<svg width="400" height="26" viewBox="0 0 400 26" fill="none" xmlns="http://www.w3.org/2000/svg">
<path d="M26.3673 22.2657H21.4043L24.5061 3.20293H29.4696L26.3673 22.2657ZM17.2291 3.20293L12.4976 16.3144L11.9377 13.491L11.9382 13.492L10.2682 4.91931C10.2682 4.91931 10.0663 3.20293 7.91391 3.20293H0.0917851L0 3.52571C0 3.52571 2.39202 4.02339 5.19147 5.70458L9.50332 22.2662H14.6744L22.5705 3.20293H17.2291ZM56.2658 22.2657H60.8229L56.8496 3.20242H52.86C51.0177 3.20242 50.569 4.62305 50.569 4.62305L43.167 22.2657H48.3406L49.3753 19.4341H55.6845L56.2658 22.2657ZM50.8046 15.5225L53.4123 8.38878L54.8793 15.5225H50.8046ZM43.5551 7.78708L44.2633 3.69347C44.2633 3.69347 42.0778 2.8623 39.7995 2.8623C37.3366 2.8623 31.4879 3.93874 31.4879 9.17304C31.4879 14.0978 38.3524 14.159 38.3524 16.7458C38.3524 19.3326 32.1951 18.8691 30.1631 17.2379L29.4253 21.5181C29.4253 21.5181 31.6414 22.5946 35.0272 22.5946C38.4141 22.5946 43.5235 20.841 43.5235 16.0681C43.5235 11.1117 36.5973 10.6503 36.5973 8.49536C36.5978 6.33994 41.4313 6.61682 43.5551 7.78708Z" fill="#2566AF"/>
<path d="M11.9382 13.4915L10.2682 4.91877C10.2682 4.91877 10.0663 3.20239 7.91391 3.20239H0.0917851L0 3.52517C0 3.52517 3.75962 4.30432 7.36575 7.2236C10.8138 10.0139 11.9382 13.4915 11.9382 13.4915Z" fill="#E6A540"/>
<g clip-path="url(#clip0_2228_70)">
<path fill-rule="evenodd" clip-rule="evenodd" d="M89.8086 3.58095C90.3968 3.57743 92.1447 3.42 92.885 5.91877C93.3838 7.60197 94.1782 10.3591 95.2684 14.1903H95.7123C96.8814 10.1512 97.6845 7.39406 98.1217 5.91877C98.8698 3.39397 100.74 3.58099 101.488 3.58099L107.26 3.581V21.5351H101.377V10.9544H100.983L97.7033 21.5351H93.2774L89.9981 10.9466H89.6036V21.5351H83.7209V3.581L89.8086 3.58095ZM115.707 3.581V14.1695H116.176L120.165 5.46266C120.94 3.72997 122.59 3.581 122.59 3.581H128.283V21.5351H122.277V10.9466H121.808L117.897 19.6535C117.123 21.3783 115.394 21.5351 115.394 21.5351H109.702V3.581H115.707ZM149.04 12.1129C148.203 14.4868 145.572 16.1869 142.659 16.1869H136.361V21.5351H130.651V12.1129H149.04Z" fill="#0F754E"/>
<path fill-rule="evenodd" clip-rule="evenodd" d="M142.935 3.58105H130.351C130.651 7.57825 134.093 11.0001 137.656 11.0001H149.437C150.117 7.67797 147.777 3.58105 142.935 3.58105Z" fill="url(#paint0_linear_2228_70)"/>
</g>
<path d="M178.309 24.9898V23.3313C178.319 23.1918 178.299 23.0519 178.25 22.9208C178.201 22.7898 178.125 22.6706 178.027 22.5712C177.929 22.4718 177.81 22.3945 177.68 22.3445C177.549 22.2944 177.41 22.2728 177.27 22.281C177.087 22.269 176.905 22.3063 176.741 22.3889C176.578 22.4716 176.44 22.5966 176.341 22.7509C176.251 22.6012 176.123 22.4786 175.969 22.3959C175.815 22.3132 175.642 22.2735 175.468 22.281C175.316 22.2733 175.164 22.3055 175.029 22.3743C174.893 22.4432 174.777 22.5463 174.694 22.6735V22.3473H174.119V24.9898H174.699V23.5359C174.687 23.4455 174.695 23.3535 174.722 23.2665C174.749 23.1795 174.796 23.0996 174.857 23.0325C174.919 22.9655 174.995 22.9129 175.08 22.8785C175.164 22.8441 175.255 22.8289 175.346 22.8338C175.728 22.8338 175.921 23.0826 175.921 23.5303V25.0008H176.502V23.5359C176.49 23.4456 176.498 23.3538 176.525 23.267C176.553 23.1802 176.599 23.1006 176.661 23.0336C176.722 22.9666 176.798 22.914 176.882 22.8795C176.967 22.845 177.057 22.8294 177.148 22.8338C177.541 22.8338 177.729 23.0826 177.729 23.5303V25.0008L178.309 24.9898ZM186.897 22.3473H185.952V21.5457H185.372V22.3473H184.846V22.8725H185.383V24.0887C185.383 24.7023 185.62 25.0672 186.3 25.0672C186.554 25.068 186.803 24.9971 187.019 24.8626L186.853 24.3706C186.699 24.4626 186.524 24.514 186.345 24.5199C186.068 24.5199 185.963 24.343 185.963 24.0776V22.8725H186.903L186.897 22.3473ZM191.801 22.281C191.661 22.2768 191.522 22.3106 191.399 22.3787C191.277 22.4468 191.175 22.5467 191.104 22.6679V22.3473H190.535V24.9898H191.11V23.5082C191.11 23.0715 191.298 22.8283 191.663 22.8283C191.786 22.8266 191.908 22.8491 192.022 22.8946L192.199 22.3418C192.068 22.2948 191.929 22.2705 191.79 22.2699L191.801 22.281ZM184.388 22.5574C184.062 22.3639 183.688 22.2679 183.31 22.281C182.641 22.281 182.204 22.6016 182.204 23.1268C182.204 23.558 182.525 23.8233 183.116 23.9063L183.392 23.945C183.708 23.9892 183.857 24.0721 183.857 24.2214C183.857 24.4259 183.647 24.542 183.254 24.542C182.939 24.5511 182.629 24.4538 182.375 24.2656L182.099 24.7134C182.434 24.9472 182.835 25.0674 183.243 25.0561C184.006 25.0561 184.448 24.6968 184.448 24.1937C184.448 23.6907 184.1 23.4861 183.525 23.4032L183.249 23.3645C183 23.3313 182.801 23.2816 182.801 23.1047C182.801 22.9278 182.989 22.7951 183.304 22.7951C183.595 22.7985 183.881 22.8765 184.133 23.0217L184.388 22.5574ZM199.786 22.281C199.646 22.2768 199.507 22.3106 199.385 22.3787C199.262 22.4468 199.16 22.5467 199.09 22.6679V22.3473H198.52V24.9898H199.095V23.5082C199.095 23.0715 199.283 22.8283 199.648 22.8283C199.771 22.8266 199.893 22.8491 200.007 22.8946L200.184 22.3418C200.053 22.2948 199.915 22.2705 199.775 22.2699L199.786 22.281ZM192.379 23.663C192.372 23.8487 192.404 24.0338 192.473 24.2064C192.541 24.379 192.645 24.5354 192.778 24.6655C192.911 24.7956 193.069 24.8965 193.243 24.9619C193.417 25.0273 193.603 25.0556 193.788 25.0451C194.133 25.0626 194.473 24.9502 194.739 24.73L194.463 24.2656C194.264 24.4172 194.022 24.5005 193.772 24.5033C193.559 24.4861 193.361 24.3895 193.216 24.2328C193.072 24.0761 192.992 23.8707 192.992 23.6575C192.992 23.4443 193.072 23.2389 193.216 23.0822C193.361 22.9254 193.559 22.8289 193.772 22.8117C194.022 22.8145 194.264 22.8978 194.463 23.0494L194.739 22.585C194.473 22.3648 194.133 22.2523 193.788 22.2699C193.603 22.2594 193.417 22.2877 193.243 22.3531C193.069 22.4185 192.911 22.5194 192.778 22.6495C192.645 22.7796 192.541 22.9359 192.473 23.1086C192.404 23.2812 192.372 23.4663 192.379 23.652V23.663ZM197.763 23.663V22.3473H197.188V22.6679C197.09 22.5423 196.964 22.4417 196.82 22.3744C196.676 22.3071 196.518 22.2751 196.359 22.281C195.992 22.281 195.641 22.4266 195.382 22.6858C195.122 22.9449 194.977 23.2965 194.977 23.663C194.977 24.0296 195.122 24.3811 195.382 24.6403C195.641 24.8995 195.992 25.0451 196.359 25.0451C196.518 25.0509 196.676 25.0189 196.82 24.9516C196.964 24.8843 197.09 24.7837 197.188 24.6581V24.9787H197.763V23.663ZM195.624 23.663C195.633 23.5075 195.687 23.358 195.78 23.233C195.873 23.108 196.001 23.013 196.147 22.9596C196.294 22.9062 196.452 22.8967 196.604 22.9324C196.756 22.9682 196.894 23.0474 197.001 23.1605C197.108 23.2736 197.18 23.4156 197.207 23.569C197.235 23.7223 197.217 23.8804 197.156 24.0237C197.095 24.167 196.993 24.2893 196.863 24.3755C196.733 24.4617 196.581 24.508 196.425 24.5088C196.316 24.5102 196.207 24.4889 196.106 24.4463C196.006 24.4037 195.915 24.3407 195.839 24.2613C195.764 24.1818 195.706 24.0877 195.669 23.9847C195.632 23.8818 195.616 23.7722 195.624 23.663ZM188.686 22.281C188.319 22.2861 187.97 22.4366 187.714 22.6994C187.459 22.9623 187.318 23.3158 187.323 23.6824C187.328 24.0489 187.479 24.3984 187.741 24.654C188.004 24.9095 188.358 25.0502 188.724 25.0451C189.122 25.0655 189.513 24.9374 189.822 24.6857L189.545 24.2601C189.327 24.4351 189.057 24.5324 188.777 24.5365C188.587 24.5528 188.398 24.4944 188.25 24.3736C188.103 24.2528 188.008 24.0792 187.986 23.8897H189.949C189.949 23.8178 189.949 23.7459 189.949 23.6685C189.949 22.8393 189.435 22.2865 188.694 22.2865L188.686 22.281ZM188.686 22.7951C188.772 22.7933 188.857 22.8084 188.937 22.8396C189.018 22.8709 189.091 22.9176 189.153 22.9771C189.215 23.0367 189.265 23.1079 189.3 23.1867C189.334 23.2655 189.353 23.3503 189.355 23.4364H187.973C187.983 23.2589 188.062 23.0925 188.193 22.9726C188.324 22.8527 188.497 22.789 188.675 22.7951H188.686ZM203.089 23.6685V21.2859H202.537V22.6679C202.439 22.5423 202.313 22.4417 202.169 22.3744C202.025 22.3071 201.866 22.2751 201.707 22.281C201.341 22.281 200.989 22.4266 200.73 22.6858C200.471 22.9449 200.325 23.2965 200.325 23.663C200.325 24.0296 200.471 24.3811 200.73 24.6403C200.989 24.8995 201.341 25.0451 201.707 25.0451C201.866 25.0509 202.025 25.0189 202.169 24.9516C202.313 24.8843 202.439 24.7837 202.537 24.6581V24.9787H203.089V23.6685ZM204.049 24.6056C204.085 24.6051 204.12 24.6117 204.154 24.6249C204.185 24.6379 204.214 24.6566 204.239 24.6802C204.264 24.704 204.283 24.7322 204.297 24.7631C204.311 24.7954 204.319 24.8302 204.319 24.8654C204.319 24.9006 204.311 24.9354 204.297 24.9677C204.283 24.9987 204.264 25.0268 204.239 25.0506C204.214 25.0742 204.185 25.0929 204.154 25.1059C204.121 25.1205 204.085 25.128 204.049 25.128C203.996 25.1276 203.945 25.1123 203.901 25.0839C203.857 25.0556 203.822 25.0152 203.8 24.9677C203.786 24.9354 203.779 24.9006 203.779 24.8654C203.779 24.8302 203.786 24.7955 203.8 24.7631C203.814 24.7322 203.834 24.704 203.858 24.6802C203.883 24.6566 203.912 24.6379 203.944 24.6249C203.98 24.6106 204.018 24.604 204.057 24.6056H204.049ZM204.049 25.0727C204.076 25.0729 204.104 25.0672 204.129 25.0561C204.153 25.0455 204.174 25.0305 204.192 25.0119C204.227 24.9742 204.246 24.9249 204.246 24.8737C204.246 24.8225 204.227 24.7732 204.192 24.7355C204.174 24.7168 204.153 24.7018 204.129 24.6913C204.103 24.6802 204.076 24.6746 204.049 24.6747C204.021 24.6748 203.994 24.6805 203.968 24.6913C203.944 24.7014 203.921 24.7165 203.902 24.7355C203.868 24.7732 203.848 24.8225 203.848 24.8737C203.848 24.9249 203.868 24.9742 203.902 25.0119C203.921 25.0309 203.944 25.0459 203.968 25.0561C203.996 25.0682 204.027 25.0738 204.057 25.0727H204.049ZM204.065 24.7438C204.091 24.7425 204.116 24.7504 204.137 24.7659C204.146 24.7729 204.152 24.7818 204.157 24.7919C204.161 24.802 204.163 24.813 204.162 24.8239C204.162 24.8331 204.161 24.8423 204.158 24.8509C204.154 24.8594 204.149 24.8672 204.143 24.8737C204.127 24.8882 204.106 24.897 204.085 24.8986L204.165 24.9898H204.101L204.027 24.8986H204.002V24.9898H203.949V24.7465L204.065 24.7438ZM204.004 24.7908V24.8571H204.065C204.076 24.8603 204.088 24.8603 204.098 24.8571C204.1 24.8533 204.101 24.849 204.101 24.8447C204.101 24.8404 204.1 24.8361 204.098 24.8322C204.1 24.8284 204.101 24.8241 204.101 24.8198C204.101 24.8155 204.1 24.8112 204.098 24.8074C204.088 24.8041 204.076 24.8041 204.065 24.8074L204.004 24.7908ZM200.964 23.6685C200.973 23.513 201.028 23.3635 201.121 23.2386C201.214 23.1136 201.341 23.0185 201.488 22.9651C201.634 22.9117 201.793 22.9023 201.944 22.938C202.096 22.9737 202.234 23.053 202.341 23.1661C202.448 23.2791 202.52 23.4211 202.548 23.5745C202.575 23.7279 202.557 23.8859 202.496 24.0292C202.435 24.1725 202.333 24.2948 202.203 24.381C202.073 24.4672 201.921 24.5136 201.765 24.5144C201.656 24.5157 201.547 24.4945 201.447 24.4519C201.346 24.4093 201.255 24.3463 201.18 24.2668C201.104 24.1874 201.046 24.0932 201.009 23.9903C200.972 23.8873 200.957 23.7778 200.964 23.6685ZM181.552 23.6685V22.3473H180.977V22.6679C180.879 22.5423 180.753 22.4417 180.609 22.3744C180.465 22.3071 180.306 22.2751 180.147 22.281C179.781 22.281 179.429 22.4266 179.17 22.6858C178.911 22.9449 178.765 23.2965 178.765 23.663C178.765 24.0296 178.911 24.3811 179.17 24.6403C179.429 24.8995 179.781 25.0451 180.147 25.0451C180.306 25.0509 180.465 25.0189 180.609 24.9516C180.753 24.8843 180.879 24.7837 180.977 24.6581V24.9787H181.552V23.6685ZM179.412 23.6685C179.421 23.513 179.476 23.3635 179.569 23.2386C179.662 23.1136 179.789 23.0185 179.936 22.9651C180.082 22.9117 180.241 22.9023 180.393 22.938C180.544 22.9737 180.682 23.053 180.789 23.1661C180.897 23.2791 180.968 23.4211 180.996 23.5745C181.023 23.7279 181.005 23.8859 180.944 24.0292C180.883 24.1725 180.781 24.2948 180.652 24.381C180.522 24.4672 180.37 24.5136 180.214 24.5144C180.104 24.5165 179.995 24.4958 179.893 24.4536C179.792 24.4113 179.7 24.3484 179.624 24.2689C179.548 24.1894 179.49 24.0949 179.452 23.9916C179.415 23.8882 179.399 23.7782 179.407 23.6685H179.412Z" fill="white"/>
<path d="M192.904 2.12817H184.197V17.7758H192.904V2.12817Z" fill="#FF5F00"/>
<path d="M184.75 9.95314C184.748 8.44595 185.089 6.95815 185.748 5.60241C186.406 4.24667 187.365 3.05853 188.55 2.12796C187.082 0.974283 185.319 0.25688 183.463 0.0577431C181.606 -0.141394 179.731 0.18577 178.052 1.00184C176.373 1.81792 174.957 3.08997 173.967 4.67263C172.976 6.25529 172.451 8.08469 172.451 9.95176C172.451 11.8188 172.976 13.6482 173.967 15.2309C174.957 16.8135 176.373 18.0856 178.052 18.9017C179.731 19.7177 181.606 20.0449 183.463 19.8458C185.319 19.6466 187.082 18.9292 188.55 17.7756C187.365 16.8453 186.407 15.6576 185.748 14.3024C185.09 12.9471 184.748 11.4599 184.75 9.95314Z" fill="#EB001B"/>
<path d="M204.651 9.95332C204.651 11.8205 204.126 13.65 203.135 15.2328C202.144 16.8155 200.728 18.0875 199.049 18.9035C197.369 19.7194 195.494 20.0464 193.638 19.8469C191.781 19.6475 190.018 18.9298 188.55 17.7757C189.735 16.8446 190.693 15.6566 191.352 14.3013C192.01 12.946 192.352 11.4588 192.352 9.95193C192.352 8.44507 192.01 6.95788 191.352 5.60257C190.693 4.24726 189.735 3.05924 188.55 2.12813C190.018 0.974097 191.781 0.256345 193.638 0.0569216C195.494 -0.142501 197.369 0.184452 199.049 1.00041C200.728 1.81637 202.144 3.0884 203.135 4.67111C204.126 6.25382 204.651 8.08334 204.651 9.95055V9.95332Z" fill="#F79E1B"/>
<path d="M203.7 16.1172V15.7966H203.83V15.7302H203.501V15.7966H203.642V16.1172H203.7ZM204.339 16.1172V15.7302H204.239L204.123 16.0066L204.007 15.7302H203.919V16.1172H203.991V15.827L204.098 16.0785H204.173L204.281 15.827V16.12L204.339 16.1172Z" fill="#F79E1B"/>
<path d="M274.984 9.50447H272.047L269.969 13.1564H268.9L268.865 5.25293H266.086V19.5269H268.865L268.9 15.6092H269.962L272.722 19.5269H275.802L272.204 14.3351L274.984 9.50447Z" fill="white"/>
<path d="M296.023 14.2055C295.459 13.84 294.846 13.5535 294.204 13.3538L293.591 13.1222L293.427 13.0608C293.046 12.9178 292.644 12.7679 292.63 12.3795C292.627 12.2645 292.652 12.1504 292.705 12.0479C292.757 11.9455 292.834 11.858 292.93 11.7936C293.131 11.6548 293.367 11.5746 293.611 11.5619C294.143 11.5252 294.671 11.6825 295.096 12.0048L295.171 12.0525L296.657 10.3423L296.582 10.281C296.397 10.1162 296.196 9.9701 295.982 9.84495C295.599 9.62579 295.183 9.47155 294.749 9.38845C294.125 9.25561 293.479 9.25561 292.855 9.38845C292.251 9.46834 291.679 9.70309 291.193 10.0698C290.882 10.313 290.622 10.6151 290.428 10.9588C290.234 11.3026 290.109 11.6811 290.061 12.0729C289.976 12.78 290.156 13.4936 290.566 14.0761C291.11 14.6788 291.822 15.1058 292.61 15.3024L292.732 15.3433L293.012 15.4387C294.02 15.7794 294.306 15.9156 294.47 16.1201C294.546 16.2229 294.589 16.3465 294.592 16.4744C294.592 16.9581 293.999 17.1557 293.597 17.2783C293.316 17.3311 293.028 17.3257 292.749 17.2624C292.47 17.1991 292.207 17.0793 291.976 16.9104C291.602 16.6606 291.283 16.3386 291.036 15.9634C290.879 16.1269 289.339 17.6462 289.366 17.6735L289.414 17.7416C290.156 18.6705 291.196 19.3154 292.358 19.5676C292.623 19.6189 292.892 19.6531 293.162 19.6698H293.441C294.359 19.689 295.258 19.4092 296.003 18.8726C296.507 18.5163 296.893 18.0183 297.113 17.4418C297.247 17.0549 297.295 16.6432 297.252 16.2359C297.21 15.8286 297.079 15.4355 296.868 15.0844C296.653 14.7343 296.364 14.4346 296.023 14.2055Z" fill="white"/>
<path d="M305.003 14.2056C304.441 13.8402 303.831 13.5536 303.191 13.3539L302.571 13.1223L302.414 13.061C302.026 12.9179 301.631 12.768 301.61 12.3796C301.612 12.2648 301.641 12.152 301.694 12.0503C301.747 11.9485 301.824 11.8606 301.917 11.7937C302.118 11.6549 302.354 11.5748 302.598 11.562C303.131 11.5265 303.658 11.6837 304.084 12.0049L304.152 12.0526L305.637 10.3424L305.569 10.2811C305.383 10.1147 305.18 9.96849 304.963 9.84508C304.582 9.62616 304.167 9.47189 303.736 9.38858C303.109 9.25557 302.462 9.25557 301.835 9.38858C301.232 9.47083 300.66 9.7053 300.173 10.0699C299.86 10.3108 299.598 10.6113 299.401 10.9539C299.205 11.2965 299.078 11.6745 299.028 12.0662C298.939 12.7735 299.119 13.4886 299.532 14.0694C300.077 14.6721 300.788 15.0991 301.576 15.2958L301.692 15.3366L301.971 15.432C302.987 15.7727 303.273 15.909 303.436 16.1134C303.515 16.2144 303.556 16.3397 303.552 16.4676C303.552 16.9514 302.966 17.149 302.564 17.2716C302.282 17.3246 301.992 17.3192 301.712 17.256C301.432 17.1927 301.168 17.0728 300.936 16.9037C300.565 16.6503 300.246 16.3289 299.995 15.9567C299.846 16.1202 298.306 17.6395 298.326 17.6668L298.381 17.7349C299.123 18.6638 300.162 19.3087 301.324 19.5609C301.59 19.6127 301.858 19.6468 302.128 19.6631H302.408C303.325 19.6823 304.224 19.4025 304.969 18.8659C305.473 18.5096 305.86 18.0116 306.08 17.4351C306.214 17.0482 306.261 16.6365 306.219 16.2292C306.176 15.8219 306.045 15.4288 305.835 15.0777C305.622 14.7318 305.339 14.4346 305.003 14.2056Z" fill="white"/>
<path d="M284.113 9.50435V10.4855H283.991C283.23 9.72357 282.199 9.29267 281.122 9.28632C280.462 9.27329 279.807 9.3994 279.199 9.6565C278.591 9.91357 278.043 10.2959 277.593 10.7784C276.684 11.796 276.197 13.1212 276.23 14.4849C276.195 15.8716 276.681 17.2209 277.593 18.2663C278.033 18.7492 278.571 19.1318 279.172 19.3881C279.773 19.6444 280.422 19.7684 281.074 19.7516C282.153 19.7314 283.189 19.3335 284.004 18.6274H284.113V19.5063H287.002V9.50435H284.113ZM284.256 14.5394C284.285 15.3454 284.016 16.1339 283.5 16.7538C283.253 17.0307 282.947 17.2499 282.606 17.3959C282.265 17.542 281.895 17.6111 281.524 17.5986C281.164 17.6047 280.808 17.5294 280.481 17.3784C280.154 17.2274 279.865 17.0045 279.637 16.7265C279.127 16.0938 278.865 15.2968 278.901 14.4849C278.878 13.6975 279.144 12.9289 279.65 12.3251C279.883 12.0512 280.174 11.8323 280.502 11.6839C280.829 11.5355 281.185 11.4612 281.545 11.4666C281.913 11.4551 282.28 11.5255 282.618 11.6728C282.956 11.8201 283.258 12.0405 283.5 12.3183C284.016 12.9409 284.285 13.7314 284.256 14.5394Z" fill="white"/>
<path d="M315.537 9.50449V10.4856H315.414C314.655 9.72536 313.627 9.2946 312.553 9.28646C311.892 9.27416 311.235 9.40061 310.626 9.65761C310.017 9.91461 309.469 10.2965 309.016 10.7786C308.108 11.7961 307.621 13.1213 307.654 14.4851C307.619 15.8717 308.105 17.2211 309.016 18.2665C309.456 18.7494 309.995 19.132 310.595 19.3882C311.196 19.6445 311.845 19.7685 312.498 19.7518C313.576 19.7315 314.613 19.3337 315.428 18.6276H315.537V19.5065H318.426V9.50449H315.537ZM315.68 14.5396C315.712 15.3461 315.443 16.1356 314.924 16.7539C314.676 17.0309 314.371 17.2501 314.03 17.3961C313.688 17.5421 313.319 17.6113 312.948 17.5987C312.588 17.6048 312.231 17.5295 311.904 17.3785C311.578 17.2275 311.289 17.0047 311.06 16.7267C310.551 16.0939 310.289 15.2969 310.325 14.4851C310.301 13.6976 310.568 12.9291 311.074 12.3252C311.307 12.0514 311.598 11.8324 311.925 11.684C312.253 11.5356 312.609 11.4614 312.968 11.4667C313.337 11.4552 313.704 11.5257 314.042 11.673C314.38 11.8202 314.681 12.0407 314.924 12.3184C315.443 12.9394 315.712 13.731 315.68 14.5396Z" fill="white"/>
<path d="M247.109 3.57788C241.112 3.57788 236.341 8.41676 236.341 14.3461C236.341 20.3435 241.18 25.1142 247.109 25.1142C253.039 25.1142 257.878 20.2754 257.878 14.3461C257.878 8.41676 253.039 3.57788 247.109 3.57788ZM247.109 18.2989C244.928 18.2989 243.088 16.4588 243.088 14.2779C243.088 12.097 244.928 10.2569 247.109 10.2569C249.29 10.2569 251.13 12.097 251.13 14.2779C251.062 16.5269 249.29 18.2989 247.109 18.2989Z" fill="white"/>
<path d="M236.273 6.64478V22.32H232.456L227.549 6.64478H236.273Z" fill="white"/>
<path d="M380.316 8.11828V18.1309C380.316 18.2896 380.197 18.4085 380.038 18.4085H377.994C377.836 18.4085 377.717 18.2896 377.717 18.1309V8.11828C377.717 7.95966 377.836 7.8407 377.994 7.8407H380.038C380.197 7.86053 380.316 7.97949 380.316 8.11828ZM396.27 7.86053H393.988C393.869 7.86053 393.77 7.93983 393.73 8.0588L391.924 13.9871L389.94 8.0588C389.9 7.93983 389.801 7.88035 389.682 7.88035H388.075C387.956 7.88035 387.856 7.95966 387.817 8.0588L385.832 13.9871L384.027 8.0588C383.987 7.93983 383.888 7.86053 383.769 7.86053H381.487C381.407 7.86053 381.308 7.90018 381.268 7.97949C381.209 8.0588 381.209 8.1381 381.229 8.21741L384.602 18.2499C384.642 18.3689 384.741 18.4283 384.86 18.4283H386.686C386.805 18.4283 386.904 18.349 386.944 18.2499L388.908 12.4009L390.873 18.2499C390.912 18.3689 391.011 18.4283 391.131 18.4283H392.956C393.075 18.4283 393.174 18.349 393.214 18.2499L396.587 8.21741C396.607 8.1381 396.607 8.03897 396.548 7.97949C396.449 7.90018 396.369 7.86053 396.27 7.86053ZM399.723 7.86053H397.679C397.52 7.86053 397.401 7.97949 397.401 8.1381V18.1508C397.401 18.3094 397.52 18.4283 397.679 18.4283H399.723C399.881 18.4283 400 18.3094 400 18.1508V8.1381C400 7.97949 399.862 7.86053 399.723 7.86053ZM376.546 18.0715C376.665 18.2103 376.566 18.4085 376.387 18.4085H373.887C373.788 18.4085 373.688 18.3689 373.629 18.2896L373.212 17.7741C372.339 18.3292 371.307 18.6663 370.216 18.6663C367.16 18.6663 364.68 16.1879 364.68 13.1345C364.68 10.0812 367.16 7.60277 370.216 7.60277C373.272 7.60277 375.752 10.0812 375.752 13.1345C375.752 14.225 375.435 15.256 374.879 16.1284L376.546 18.0715ZM371.565 15.8508L370.474 14.5224C370.355 14.3836 370.454 14.1655 370.633 14.1655H372.934C373.053 13.8483 373.113 13.4914 373.113 13.1345C373.113 11.4889 371.883 10.0613 370.196 10.0613C368.509 10.0613 367.279 11.4889 367.279 13.1345C367.279 14.7802 368.509 16.1879 370.196 16.1879C370.692 16.2077 371.148 16.0689 371.565 15.8508ZM358.35 18.0318C358.409 18.4482 358.27 18.6266 358.151 18.6266C358.012 18.6266 357.834 18.4482 357.615 18.1309C357.397 17.7939 357.318 17.4172 357.437 17.2387C357.496 17.1198 357.655 17.0603 357.834 17.1198C358.171 17.2387 358.31 17.7741 358.35 18.0318ZM356.385 18.924C356.802 19.2809 356.941 19.7171 356.723 20.0145C356.603 20.1731 356.405 20.2723 356.147 20.2723C355.909 20.2723 355.671 20.193 355.492 20.0343C355.115 19.6973 354.996 19.1421 355.254 18.8447C355.353 18.7258 355.512 18.6663 355.711 18.6663C355.929 18.6663 356.167 18.7654 356.385 18.924ZM355.671 22.3938C357.496 22.3938 359.481 23.0282 361.683 24.9713C361.902 25.1695 362.199 24.9316 362.001 24.6739C359.838 21.9576 357.854 21.4421 355.869 21.0059C353.429 20.4705 352.178 19.1025 351.305 17.5956C351.127 17.2982 351.047 17.3577 351.047 17.7344C351.028 18.2103 351.067 18.8249 351.166 19.4395C351.067 19.4395 350.968 19.4395 350.869 19.4395C347.396 19.4395 344.559 16.6241 344.559 13.1345C344.559 9.66479 347.376 6.82952 350.869 6.82952C354.361 6.82952 357.179 9.64496 357.179 13.1345C357.179 13.3724 357.159 13.6302 357.139 13.8681C356.683 13.7888 355.77 13.769 355.135 13.8285C354.897 13.8483 354.937 13.9673 355.115 13.9871C357.199 14.3638 358.627 15.6526 358.965 17.9922C358.965 18.0516 359.044 18.0715 359.064 18.012C359.917 16.5844 360.413 14.919 360.413 13.1147C360.413 7.86053 356.147 3.57788 350.869 3.57788C345.59 3.57788 341.324 7.8407 341.324 13.1147C341.324 18.3689 345.59 22.6515 350.869 22.6515C352.258 22.6713 353.647 22.3938 355.671 22.3938Z" fill="#FF8C00"/>
<defs>
<linearGradient id="paint0_linear_2228_70" x1="2050.52" y1="470.272" x2="130.351" y2="470.272" gradientUnits="userSpaceOnUse">
<stop stop-color="#1F5CD7"/>
<stop offset="1" stop-color="#02AEFF"/>
</linearGradient>
<clipPath id="clip0_2228_70">
<rect width="65.8318" height="17.9541" fill="white" transform="translate(83.7209 3.57788)"/>
</clipPath>
</defs>
</svg>
