<svg width="42" height="33" viewBox="0 0 42 33" fill="none" xmlns="http://www.w3.org/2000/svg">
<path d="M7.60499 32.4397V30.2868C7.61753 30.1057 7.59135 29.9241 7.52819 29.7539C7.46503 29.5838 7.36633 29.4291 7.23868 29.3C7.11102 29.171 6.95734 29.0707 6.78787 29.0057C6.6184 28.9408 6.43704 28.9127 6.25586 28.9233C6.0187 28.9078 5.78172 28.9562 5.56965 29.0635C5.35758 29.1708 5.17821 29.333 5.05025 29.5333C4.93361 29.339 4.76672 29.1798 4.56716 29.0725C4.36761 28.9651 4.14279 28.9136 3.91641 28.9233C3.71907 28.9133 3.52254 28.9551 3.34632 29.0445C3.17009 29.1338 3.02028 29.2677 2.91173 29.4328V29.0094H2.16541V32.4397H2.91891V30.5523C2.90288 30.435 2.91297 30.3156 2.94844 30.2027C2.98392 30.0897 3.04391 29.986 3.12412 29.8989C3.20434 29.8119 3.3028 29.7436 3.41247 29.699C3.52214 29.6544 3.64031 29.6346 3.75853 29.6409C4.25369 29.6409 4.50486 29.9639 4.50486 30.5451V32.454H5.25836V30.5523C5.24299 30.4351 5.25353 30.316 5.28925 30.2033C5.32497 30.0907 5.38498 29.9872 5.46507 29.9003C5.54515 29.8134 5.64333 29.7451 5.7527 29.7003C5.86206 29.6555 5.97993 29.6352 6.09798 29.6409C6.60749 29.6409 6.85148 29.9639 6.85148 30.5451V32.454L7.60499 32.4397ZM18.7533 29.0094H17.5261V27.9689H16.7726V29.0094H16.0909V29.6912H16.787V31.2699C16.787 32.0665 17.0956 32.5401 17.9782 32.5401C18.308 32.5412 18.6314 32.4492 18.9111 32.2746L18.6959 31.6359C18.4957 31.7553 18.2686 31.822 18.0356 31.8297C17.6768 31.8297 17.5405 31.6 17.5405 31.2556V29.6912H18.7604L18.7533 29.0094ZM25.1186 28.9233C24.9366 28.918 24.7566 28.9618 24.5974 29.0502C24.4383 29.1386 24.306 29.2683 24.2144 29.4256V29.0094H23.4752V32.4397H24.2215V30.5164C24.2215 29.9495 24.4655 29.6338 24.9392 29.6338C25.0988 29.6316 25.2573 29.6608 25.4056 29.7199L25.6353 29.0023C25.4648 28.9413 25.2852 28.9097 25.1042 28.909L25.1186 28.9233ZM15.4953 29.2821C15.0728 29.0309 14.5871 28.9064 14.0959 28.9233C13.2276 28.9233 12.6606 29.3395 12.6606 30.0213C12.6606 30.581 13.0769 30.9255 13.8447 31.0331L14.2035 31.0834C14.6126 31.1408 14.8063 31.2484 14.8063 31.4422C14.8063 31.7077 14.5336 31.8584 14.0241 31.8584C13.6143 31.8703 13.2124 31.7439 12.8831 31.4996L12.5243 32.0809C12.959 32.3844 13.4797 32.5404 14.0098 32.5258C15.0001 32.5258 15.5742 32.0593 15.5742 31.4063C15.5742 30.7533 15.1221 30.4877 14.3758 30.3801L14.0169 30.3299C13.694 30.2868 13.4357 30.2222 13.4357 29.9926C13.4357 29.7629 13.6797 29.5907 14.0887 29.5907C14.4668 29.5951 14.8374 29.6964 15.1651 29.8849L15.4953 29.2821ZM35.4846 28.9233C35.3027 28.918 35.1226 28.9618 34.9635 29.0502C34.8044 29.1386 34.672 29.2683 34.5804 29.4256V29.0094H33.8413V32.4397H34.5876V30.5164C34.5876 29.9495 34.8316 29.6338 35.3052 29.6338C35.4649 29.6316 35.6234 29.6608 35.7717 29.7199L36.0013 29.0023C35.8309 28.9413 35.6513 28.9097 35.4703 28.909L35.4846 28.9233ZM25.8685 30.7174C25.8596 30.9584 25.9012 31.1987 25.9905 31.4228C26.0798 31.6468 26.2149 31.8498 26.3871 32.0187C26.5594 32.1875 26.765 32.3186 26.9908 32.4034C27.2166 32.4883 27.4576 32.5251 27.6984 32.5114C28.1465 32.5342 28.5869 32.3883 28.9327 32.1024L28.5739 31.4996C28.3159 31.6963 28.0013 31.8045 27.6769 31.8082C27.401 31.7858 27.1437 31.6605 26.956 31.457C26.7684 31.2536 26.6642 30.987 26.6642 30.7102C26.6642 30.4334 26.7684 30.1668 26.956 29.9633C27.1437 29.7599 27.401 29.6346 27.6769 29.6122C28.0013 29.6158 28.3159 29.7241 28.5739 29.9208L28.9327 29.318C28.5869 29.0321 28.1465 28.8862 27.6984 28.909C27.4576 28.8953 27.2166 28.9321 26.9908 29.0169C26.765 29.1018 26.5594 29.2328 26.3871 29.4017C26.2149 29.5706 26.0798 29.7736 25.9905 29.9976C25.9012 30.2217 25.8596 30.462 25.8685 30.703V30.7174ZM32.8581 30.7174V29.0094H32.1118V29.4256C31.9851 29.2626 31.8214 29.132 31.6342 29.0446C31.447 28.9573 31.2418 28.9157 31.0354 28.9233C30.5596 28.9233 30.1032 29.1123 29.7668 29.4488C29.4303 29.7852 29.2413 30.2416 29.2413 30.7174C29.2413 31.1932 29.4303 31.6495 29.7668 31.986C30.1032 32.3224 30.5596 32.5114 31.0354 32.5114C31.2418 32.519 31.447 32.4775 31.6342 32.3901C31.8214 32.3028 31.9851 32.1722 32.1118 32.0091V32.4253H32.8581V30.7174ZM30.0809 30.7174C30.0928 30.5155 30.1635 30.3214 30.2843 30.1592C30.4051 29.9969 30.5707 29.8736 30.7607 29.8042C30.9507 29.7349 31.1568 29.7227 31.3537 29.769C31.5506 29.8154 31.7296 29.9183 31.8688 30.0651C32.0079 30.2119 32.1011 30.3962 32.1368 30.5953C32.1725 30.7944 32.1492 30.9995 32.0698 31.1856C31.9904 31.3716 31.8583 31.5303 31.6898 31.6422C31.5213 31.7541 31.3238 31.8143 31.1215 31.8153C30.9794 31.8171 30.8385 31.7895 30.7076 31.7342C30.5768 31.6789 30.4587 31.5971 30.361 31.494C30.2633 31.3909 30.1879 31.2686 30.1397 31.135C30.0915 31.0013 30.0715 30.8591 30.0809 30.7174ZM21.0748 28.9233C20.599 28.93 20.1453 29.1254 19.8135 29.4665C19.4818 29.8077 19.2992 30.2667 19.3058 30.7425C19.3125 31.2183 19.5079 31.672 19.8491 32.0037C20.1902 32.3355 20.6492 32.5181 21.125 32.5114C21.6412 32.5379 22.1489 32.3717 22.5495 32.045L22.1907 31.4924C21.9073 31.7196 21.5563 31.8459 21.1932 31.8512C20.9465 31.8724 20.7012 31.7966 20.5096 31.6398C20.318 31.483 20.195 31.2576 20.167 31.0116H22.7145C22.7145 30.9183 22.7145 30.825 22.7145 30.7245C22.7145 29.6481 22.0471 28.9305 21.0855 28.9305L21.0748 28.9233ZM21.0748 29.5907C21.1865 29.5883 21.2975 29.608 21.4016 29.6485C21.5057 29.6891 21.6008 29.7497 21.6814 29.827C21.762 29.9043 21.8266 29.9968 21.8715 30.0991C21.9165 30.2013 21.9408 30.3115 21.9431 30.4231H20.149C20.162 30.1928 20.2647 29.9767 20.435 29.8211C20.6054 29.6655 20.8299 29.5828 21.0604 29.5907H21.0748ZM39.7724 30.7245V27.6316H39.0548V29.4256C38.9281 29.2626 38.7644 29.132 38.5772 29.0446C38.39 28.9573 38.1848 28.9157 37.9784 28.9233C37.5026 28.9233 37.0462 29.1123 36.7098 29.4488C36.3733 29.7852 36.1843 30.2416 36.1843 30.7174C36.1843 31.1932 36.3733 31.6495 36.7098 31.986C37.0462 32.3224 37.5026 32.5114 37.9784 32.5114C38.1848 32.519 38.39 32.4775 38.5772 32.3901C38.7644 32.3028 38.9281 32.1722 39.0548 32.0091V32.4253H39.7724V30.7245ZM41.0175 31.9409C41.0642 31.9403 41.1105 31.9489 41.1539 31.966C41.1951 31.9829 41.2328 32.0072 41.2651 32.0378C41.2966 32.0687 41.3222 32.1052 41.3404 32.1454C41.3586 32.1873 41.368 32.2325 41.368 32.2782C41.368 32.3239 41.3586 32.3691 41.3404 32.411C41.3222 32.4512 41.2966 32.4877 41.2651 32.5186C41.2328 32.5492 41.1951 32.5736 41.1539 32.5904C41.1109 32.6093 41.0645 32.6191 41.0175 32.6191C40.9495 32.6186 40.883 32.5987 40.8258 32.5619C40.7687 32.525 40.7231 32.4727 40.6946 32.411C40.6766 32.369 40.6674 32.3238 40.6674 32.2782C40.6674 32.2326 40.6766 32.1874 40.6946 32.1454C40.7129 32.1052 40.7384 32.0687 40.7699 32.0378C40.8022 32.0072 40.84 31.9829 40.8812 31.966C40.9279 31.9474 40.978 31.9389 41.0283 31.9409H41.0175ZM41.0175 32.5473C41.0533 32.5475 41.0888 32.5402 41.1216 32.5258C41.1524 32.512 41.1804 32.4925 41.2041 32.4684C41.249 32.4194 41.2739 32.3554 41.2739 32.289C41.2739 32.2225 41.249 32.1585 41.2041 32.1096C41.1805 32.0853 41.1525 32.0659 41.1216 32.0521C41.0887 32.0378 41.0533 32.0305 41.0175 32.0306C40.9817 32.0308 40.9464 32.0381 40.9135 32.0521C40.8812 32.0654 40.8519 32.0849 40.8273 32.1096C40.7825 32.1585 40.7576 32.2225 40.7576 32.289C40.7576 32.3554 40.7825 32.4194 40.8273 32.4684C40.852 32.493 40.8813 32.5125 40.9135 32.5258C40.9497 32.5414 40.9889 32.5487 41.0283 32.5473H41.0175ZM41.039 32.1203C41.0725 32.1187 41.1055 32.1289 41.1323 32.149C41.1433 32.1581 41.152 32.1697 41.1576 32.1828C41.1632 32.1959 41.1656 32.2102 41.1646 32.2244C41.1651 32.2363 41.1632 32.2482 41.1589 32.2593C41.1545 32.2704 41.1479 32.2805 41.1395 32.289C41.1187 32.3079 41.0922 32.3192 41.0642 32.3213L41.1682 32.4397H41.0857L40.9888 32.3213H40.9565V32.4397H40.8883V32.1239L41.039 32.1203ZM40.9601 32.1813V32.2674H41.039C41.0531 32.2716 41.0681 32.2716 41.0821 32.2674C41.0846 32.2624 41.0859 32.2569 41.0859 32.2513C41.0859 32.2457 41.0846 32.2402 41.0821 32.2351C41.0846 32.2301 41.0859 32.2246 41.0859 32.219C41.0859 32.2134 41.0846 32.2079 41.0821 32.2028C41.0681 32.1987 41.0531 32.1987 41.039 32.2028L40.9601 32.1813ZM37.0132 30.7245C37.0251 30.5226 37.0958 30.3286 37.2165 30.1664C37.3373 30.0041 37.5029 29.8807 37.6929 29.8114C37.8829 29.7421 38.0891 29.7298 38.286 29.7762C38.4828 29.8225 38.6619 29.9254 38.801 30.0723C38.9401 30.2191 39.0333 30.4034 39.069 30.6024C39.1047 30.8015 39.0814 31.0067 39.002 31.1927C38.9226 31.3788 38.7905 31.5375 38.622 31.6494C38.4535 31.7613 38.256 31.8215 38.0537 31.8225C37.9117 31.8243 37.7708 31.7967 37.6399 31.7414C37.509 31.6861 37.391 31.6043 37.2933 31.5012C37.1955 31.398 37.1202 31.2758 37.072 31.1422C37.0238 31.0085 37.0038 30.8663 37.0132 30.7245ZM11.8138 30.7245V29.0094H11.0675V29.4256C10.9408 29.2626 10.7771 29.132 10.5899 29.0446C10.4027 28.9573 10.1975 28.9157 9.99108 28.9233C9.51527 28.9233 9.05894 29.1123 8.72249 29.4488C8.38604 29.7852 8.19703 30.2416 8.19703 30.7174C8.19703 31.1932 8.38604 31.6495 8.72249 31.986C9.05894 32.3224 9.51527 32.5114 9.99108 32.5114C10.1975 32.519 10.4027 32.4775 10.5899 32.3901C10.7771 32.3028 10.9408 32.1722 11.0675 32.0091V32.4253H11.8138V30.7245ZM9.03665 30.7245C9.04855 30.5226 9.11924 30.3286 9.24001 30.1664C9.36079 30.0041 9.52638 29.8807 9.71639 29.8114C9.90641 29.7421 10.1125 29.7298 10.3094 29.7762C10.5063 29.8225 10.6853 29.9254 10.8245 30.0723C10.9636 30.2191 11.0568 30.4034 11.0925 30.6024C11.1282 30.8015 11.1049 31.0067 11.0255 31.1927C10.9461 31.3788 10.814 31.5375 10.6455 31.6494C10.477 31.7613 10.2795 31.8215 10.0772 31.8225C9.93453 31.8253 9.79284 31.7984 9.66111 31.7436C9.52938 31.6887 9.41048 31.6071 9.31197 31.5038C9.21346 31.4006 9.13748 31.278 9.08885 31.1439C9.04022 31.0097 9.02 30.8669 9.02947 30.7245H9.03665Z" fill="white"/>
<path d="M26.5501 2.7627H15.2476V23.075H26.5501V2.7627Z" fill="#FF5F00"/>
<path d="M15.9652 12.9205C15.9631 10.964 16.4062 9.03265 17.261 7.27275C18.1158 5.51284 19.3598 3.9705 20.8989 2.76253C18.9933 1.26493 16.7048 0.333656 14.2949 0.075154C11.8851 -0.183348 9.45114 0.241347 7.27126 1.3007C5.09137 2.36005 3.25349 4.01132 1.96768 6.06579C0.681871 8.12025 0 10.495 0 12.9187C0 15.3423 0.681871 17.7171 1.96768 19.7716C3.25349 21.826 5.09137 23.4773 7.27126 24.5367C9.45114 25.596 11.8851 26.0207 14.2949 25.7622C16.7048 25.5037 18.9933 24.5724 20.8989 23.0748C19.3603 21.8672 18.1166 20.3255 17.2618 18.5662C16.4071 16.807 15.9637 14.8764 15.9652 12.9205Z" fill="#EB001B"/>
<path d="M41.7996 12.9205C41.7995 15.3443 41.1175 17.7193 39.8314 19.7738C38.5454 21.8283 36.7073 23.4796 34.5271 24.5388C32.3469 25.598 29.9127 26.0224 27.5028 25.7635C25.0928 25.5047 22.8043 24.5729 20.8988 23.0749C22.4368 21.8662 23.6802 20.324 24.5351 18.5647C25.3901 16.8053 25.8344 14.8748 25.8344 12.9187C25.8344 10.9626 25.3901 9.03209 24.5351 7.27276C23.6802 5.51342 22.4368 3.97123 20.8988 2.76255C22.8043 1.26449 25.0928 0.332764 27.5028 0.0738906C29.9127 -0.184982 32.3469 0.239439 34.5271 1.29864C36.7073 2.35784 38.5454 4.00909 39.8314 6.06362C41.1175 8.11815 41.7995 10.4931 41.7996 12.9169V12.9205Z" fill="#F79E1B"/>
<path d="M40.5652 20.922V20.5058H40.7339V20.4197H40.3069V20.5058H40.4899V20.922H40.5652ZM41.3941 20.922V20.4197H41.2649L41.1142 20.7785L40.9635 20.4197H40.8487V20.922H40.942V20.5453L41.0819 20.8718H41.1788L41.3187 20.5453V20.9256L41.3941 20.922Z" fill="#F79E1B"/>
</svg>
