<svg width="76" height="19" viewBox="0 0 76 19" fill="none" xmlns="http://www.w3.org/2000/svg">
<path d="M40.002 5.76577H37.5746L35.8567 8.78467H34.9725L34.9443 2.25122H32.6462V14.0509H34.9443L34.9725 10.8123H35.8511L38.1321 14.0509H40.678L37.704 9.75907L40.002 5.76577Z" fill="white"/>
<path d="M57.3943 9.65202C56.9274 9.34991 56.4213 9.11304 55.8903 8.94801L55.3834 8.7565L55.2483 8.7058C54.9329 8.58754 54.6006 8.46362 54.5893 8.14258C54.5865 8.04748 54.6074 7.95318 54.6509 7.86849C54.6941 7.7838 54.7583 7.71143 54.8371 7.65822C55.0036 7.54352 55.1986 7.47722 55.4003 7.46671C55.8403 7.43633 56.2766 7.56638 56.6282 7.8328L56.6901 7.87225L57.9179 6.45854L57.856 6.40785C57.7031 6.27158 57.5373 6.15083 57.3604 6.04738C57.0436 5.86621 56.6994 5.7387 56.3411 5.67001C55.8248 5.56019 55.2912 5.56019 54.7752 5.67001C54.2762 5.73605 53.8028 5.9301 53.401 6.23324C53.1438 6.43433 52.9291 6.68405 52.7686 6.96816C52.6083 7.25231 52.5055 7.56525 52.4659 7.88912C52.3956 8.47363 52.5439 9.0635 52.8827 9.54504C53.3326 10.0433 53.921 10.3963 54.5723 10.5588L54.6738 10.5926L54.9047 10.6715C55.7383 10.9531 55.9748 11.0657 56.1099 11.2347C56.1729 11.3197 56.2082 11.4219 56.2113 11.5276C56.2113 11.9275 55.7213 12.0908 55.389 12.1922C55.1567 12.2358 54.9179 12.2314 54.6873 12.179C54.4568 12.1267 54.2394 12.0277 54.0487 11.8881C53.7398 11.6816 53.4756 11.4154 53.2713 11.1052C53.1419 11.2403 51.8688 12.4963 51.8914 12.5189L51.931 12.5752C52.5442 13.3431 53.4035 13.8762 54.3641 14.0847C54.5834 14.1271 54.8055 14.1553 55.0287 14.1691H55.2596C56.0183 14.185 56.7615 13.9537 57.3773 13.5102C57.7938 13.2156 58.1132 12.8039 58.2954 12.3274C58.4062 12.0075 58.4452 11.6672 58.4102 11.3305C58.3751 10.9938 58.2669 10.6688 58.0925 10.3786C57.9145 10.0892 57.6763 9.84139 57.3943 9.65202Z" fill="white"/>
<path d="M64.8176 9.65213C64.3527 9.35004 63.8489 9.11315 63.3196 8.94809L62.807 8.75661L62.6776 8.70591C62.3565 8.58762 62.0299 8.4637 62.0129 8.14268C62.0143 8.04776 62.0381 7.95453 62.0821 7.87041C62.1262 7.78631 62.1892 7.71365 62.2664 7.6583C62.4328 7.54359 62.6278 7.47733 62.8296 7.46681C63.2696 7.43745 63.7053 7.56739 64.0574 7.83291L64.1137 7.87233L65.3415 6.45862L65.2853 6.40792C65.1313 6.27033 64.9634 6.1495 64.784 6.04748C64.4692 5.86651 64.1267 5.73898 63.77 5.67011C63.2521 5.56016 62.7168 5.56016 62.1989 5.67011C61.7004 5.7381 61.2273 5.93193 60.8243 6.23334C60.5658 6.43251 60.349 6.68085 60.1865 6.96406C60.0243 7.24727 59.9195 7.55976 59.8782 7.8836C59.8045 8.46831 59.9531 9.05937 60.2951 9.53949C60.7449 10.0378 61.3333 10.3907 61.9846 10.5533L62.0804 10.5871L62.3113 10.6659C63.1506 10.9475 63.3871 11.0602 63.5222 11.2292C63.5872 11.3127 63.6211 11.4163 63.618 11.522C63.618 11.9219 63.1337 12.0853 62.8013 12.1867C62.5682 12.2304 62.3283 12.226 62.0968 12.1737C61.8654 12.1214 61.647 12.0223 61.4554 11.8825C61.149 11.673 60.8854 11.4074 60.678 11.0996C60.5542 11.2348 59.2811 12.4908 59.2981 12.5133L59.343 12.5697C59.9565 13.3375 60.8159 13.8706 61.7764 14.0791C61.9957 14.1219 62.2178 14.1501 62.441 14.1636H62.6719C63.4307 14.1795 64.1739 13.9482 64.7896 13.5046C65.2062 13.21 65.5255 12.7984 65.7078 12.3218C65.8183 12.0019 65.8575 11.6616 65.8225 11.3249C65.7875 10.9882 65.6792 10.6633 65.5049 10.3731C65.3291 10.0871 65.0948 9.84146 64.8176 9.65213Z" fill="white"/>
<path d="M47.5488 5.76571V6.57677H47.4476C46.8186 5.94693 45.9663 5.59073 45.0764 5.58547C44.5308 5.57471 43.9887 5.67895 43.4863 5.89149C42.9836 6.104 42.5312 6.42002 42.1587 6.81895C41.4076 7.66007 41.0049 8.75558 41.0323 9.88292C41.0032 11.0292 41.405 12.1446 42.1587 13.0088C42.5224 13.408 42.9675 13.7243 43.4643 13.9361C43.9608 14.148 44.4971 14.2505 45.0369 14.2367C45.9282 14.2199 46.7852 13.891 47.4587 13.3073H47.5488V14.0339H49.937V5.76571H47.5488ZM47.6672 9.92796C47.6912 10.5943 47.4685 11.246 47.0418 11.7585C46.8375 11.9874 46.5852 12.1686 46.3029 12.2893C46.0208 12.41 45.7154 12.4672 45.4088 12.4569C45.1112 12.4619 44.8162 12.3996 44.546 12.2748C44.2759 12.15 44.0374 11.9658 43.8486 11.7359C43.427 11.2129 43.2108 10.554 43.2402 9.88292C43.221 9.23197 43.4414 8.59666 43.8596 8.09749C44.0523 7.87111 44.2925 7.69011 44.5632 7.56741C44.834 7.44474 45.1284 7.38339 45.4254 7.3878C45.7303 7.37833 46.0333 7.43654 46.3128 7.55828C46.5922 7.68002 46.8415 7.86226 47.0418 8.09184C47.4685 8.60655 47.6909 9.25998 47.6672 9.92796Z" fill="white"/>
<path d="M73.5252 5.76587V6.5769H73.4238C72.7962 5.94845 71.9464 5.59236 71.0582 5.58564C70.512 5.57547 69.9694 5.67999 69.4659 5.89244C68.9626 6.1049 68.509 6.42058 68.1351 6.81911C67.384 7.66024 66.9813 8.75572 67.0087 9.88308C66.9796 11.0293 67.3815 12.1448 68.1351 13.009C68.4988 13.4082 68.9439 13.7245 69.4404 13.9363C69.9372 14.1482 70.4736 14.2507 71.0133 14.2368C71.9046 14.2201 72.7614 13.8912 73.4351 13.3075H73.5252V14.0341H75.9134V5.76587H73.5252ZM73.6437 9.92813C73.6702 10.5948 73.4472 11.2475 73.0183 11.7586C72.814 11.9876 72.5616 12.1688 72.2793 12.2895C71.997 12.4102 71.6918 12.4674 71.3849 12.457C71.0873 12.462 70.7926 12.3998 70.5225 12.275C70.2523 12.1501 70.0138 11.9659 69.8247 11.7361C69.4034 11.213 69.1869 10.5542 69.2166 9.88308C69.1974 9.23214 69.4178 8.59682 69.836 8.09763C70.0288 7.87127 70.269 7.69025 70.5397 7.56758C70.8104 7.44488 71.1049 7.38355 71.4019 7.38796C71.7068 7.37847 72.0097 7.43671 72.2892 7.55845C72.5687 7.68019 72.8176 7.86243 73.0183 8.092C73.4472 8.60538 73.6699 9.25975 73.6437 9.92813Z" fill="white"/>
<path d="M16.9595 0.866699C12.0016 0.866699 8.05792 4.86677 8.05792 9.76825C8.05792 14.7261 12.058 18.6698 16.9595 18.6698C21.861 18.6698 25.861 14.6697 25.861 9.76825C25.861 4.86677 21.861 0.866699 16.9595 0.866699ZM16.9595 13.0359C15.1566 13.0359 13.6355 11.5148 13.6355 9.7119C13.6355 7.90907 15.1566 6.38792 16.9595 6.38792C18.7623 6.38792 20.2835 7.90907 20.2835 9.7119C20.2271 11.5711 18.7623 13.0359 16.9595 13.0359Z" fill="white"/>
<path d="M8.00136 3.40186V16.3598H4.84637L0.789978 3.40186H8.00136Z" fill="white"/>
</svg>
