<svg width="61" height="20" viewBox="0 0 61 20" fill="none" xmlns="http://www.w3.org/2000/svg">
<path d="M26.3671 19.4034H21.4041L24.5059 0.340625H29.4694L26.3671 19.4034ZM17.2289 0.340625L12.4974 13.4521L11.9375 10.6287L11.938 10.6297L10.268 2.05701C10.268 2.05701 10.0661 0.340625 7.91373 0.340625H0.091602L-0.000183105 0.663402C-0.000183105 0.663402 2.39184 1.16108 5.19128 2.84228L9.50314 19.4039H14.6742L22.5703 0.340625H17.2289ZM56.2656 19.4034H60.8227L56.8494 0.340115H52.8599C51.0175 0.340115 50.5688 1.76074 50.5688 1.76074L43.1668 19.4034H48.3405L49.3751 16.5718H55.6843L56.2656 19.4034ZM50.8044 12.6602L53.4121 5.52648L54.8791 12.6602H50.8044ZM43.5549 4.92478L44.2632 0.831165C44.2632 0.831165 42.0777 0 39.7994 0C37.3365 0 31.4877 1.07643 31.4877 6.31073C31.4877 11.2355 38.3522 11.2967 38.3522 13.8835C38.3522 16.4703 32.195 16.0068 30.1629 14.3756L29.4251 18.6558C29.4251 18.6558 31.6412 19.7323 35.027 19.7323C38.4139 19.7323 43.5233 17.9787 43.5233 13.2058C43.5233 8.24944 36.5971 7.78796 36.5971 5.63305C36.5976 3.47763 41.4311 3.75452 43.5549 4.92478Z" fill="#2566AF"/>
<path d="M11.938 10.6292L10.268 2.05647C10.268 2.05647 10.0661 0.340088 7.91373 0.340088H0.091602L-0.000183105 0.662865C-0.000183105 0.662865 3.75943 1.44202 7.36557 4.36129C10.8136 7.15156 11.938 10.6292 11.938 10.6292Z" fill="#E6A540"/>
</svg>
