<svg width="35" height="35" viewBox="0 0 35 35" fill="none" xmlns="http://www.w3.org/2000/svg">
<g clip-path="url(#clip0_3225_5)">
<path d="M24.7207 14.4596L18.1049 29.7287C18.0439 29.8714 17.9355 29.9885 17.798 30.0603C17.6605 30.1321 17.5023 30.1541 17.3504 30.1226C17.1986 30.091 17.0623 30.0079 16.9647 29.8873C16.8671 29.7667 16.8143 29.616 16.8152 29.4609V21.6437H11.5576C11.446 21.6438 11.336 21.6162 11.2378 21.5632C11.1395 21.5103 11.0559 21.4337 10.9946 21.3404C10.9333 21.2471 10.8962 21.14 10.8866 21.0288C10.8771 20.9175 10.8953 20.8057 10.9398 20.7033L17.554 5.43413C17.6162 5.2928 17.725 5.17709 17.8622 5.10635C17.9995 5.0356 18.1568 5.01411 18.308 5.04547C18.4592 5.07683 18.595 5.15914 18.6928 5.27863C18.7906 5.39812 18.8444 5.54756 18.8452 5.70196V13.5191H24.1028C24.2145 13.519 24.3244 13.5466 24.4227 13.5996C24.521 13.6525 24.6045 13.7291 24.6658 13.8224C24.7271 13.9157 24.7642 14.0228 24.7738 14.1341C24.7834 14.2453 24.7651 14.3572 24.7207 14.4596ZM18.1718 14.8651C18.0834 14.8651 17.9959 14.8477 17.9142 14.8139C17.8325 14.78 17.7582 14.7304 17.6957 14.6679C17.6332 14.6054 17.5836 14.5311 17.5497 14.4494C17.5159 14.3677 17.4985 14.2802 17.4985 14.1917V8.94859L12.5833 20.2977H17.4878C17.8599 20.2977 18.1612 20.599 18.1612 20.9711V26.2142L23.0764 14.8651H18.1718ZM17.5008 35.0015C7.85065 35.0015 0 27.1509 0 17.5008C0 7.85065 7.85065 0 17.5008 0C27.1509 0 35 7.85065 35 17.5008C35 27.1509 27.1493 35.0015 17.5008 35.0015ZM17.5008 1.34598C8.5925 1.34598 1.34598 8.59402 1.34598 17.5008C1.34598 26.409 8.5925 33.6555 17.5008 33.6555C26.4067 33.6555 33.6533 26.409 33.6533 17.5008C33.6533 8.59478 26.4067 1.34598 17.5008 1.34598Z" fill="white"/>
</g>
<defs>
<clipPath id="clip0_3225_5">
<rect width="35" height="35.0015" fill="white"/>
</clipPath>
</defs>
</svg>
