<svg width="36" height="35" viewBox="0 0 36 35" fill="none" xmlns="http://www.w3.org/2000/svg">
<g clip-path="url(#clip0_3225_2)">
<path d="M18 0C8.35039 0 0.5 7.85039 0.5 17.5C0.5 27.1496 8.35039 35 18 35C27.6496 35 35.5 27.1496 35.5 17.5C35.5 7.85039 27.6496 0 18 0ZM34.2006 20.0873L32.076 16.5659L33.5422 12.2566C34.3957 14.7743 34.6217 17.4623 34.2006 20.0873ZM30.0673 28.6005C29.9945 28.5814 29.9185 28.5777 29.8442 28.5895L24.5516 29.4383C24.541 29.3718 24.5182 29.3078 24.4843 29.2496L21.4754 24.2348L26.3404 16.7426H30.9495C30.959 16.8023 30.9784 16.8599 31.0069 16.9132L33.8703 21.659C33.1891 24.2489 31.8833 26.6323 30.0673 28.6005ZM24.5521 30.5457L28.7565 29.872C26.9073 31.4845 24.7196 32.6612 22.3548 33.3151L24.5521 30.5457ZM7.41797 4.97656C10.2699 2.55698 13.8661 1.1898 17.6052 1.10359C17.6326 1.1813 17.6775 1.25165 17.7364 1.30922L20.7579 4.16062L19.563 8.62094L11.7771 11.6096C11.7487 11.5866 11.7262 11.5582 11.6929 11.5407L6.84211 8.96984L7.41797 4.97656ZM21.4923 3.34906L19.1501 1.13859C21.2377 1.28163 23.2781 1.82586 25.1597 2.74148L21.4923 3.34906ZM12.493 21.1843L12.0467 12.6782L19.9988 9.625L25.3598 16.2455L20.7207 23.3893L12.493 21.1843ZM32.9324 10.7166C32.9155 10.7461 32.893 10.7702 32.8816 10.8035L31.2327 15.6488H26.2846L20.6698 8.71555L21.8254 4.40234L26.348 3.65258C26.4396 3.63508 26.525 3.59399 26.5958 3.53336C29.3712 5.24922 31.5762 7.74877 32.9324 10.7166ZM6.13883 6.18352L5.70023 9.22469L2.775 11.3985C3.55472 9.46223 4.69637 7.69232 6.13883 6.18352ZM2.17125 13.1945C2.19531 13.1819 2.22047 13.1742 2.24289 13.1573L6.47406 10.0122L10.9355 12.3763L11.4211 21.6382C11.4222 21.6519 11.4282 21.6645 11.4298 21.6781L7.21344 25.8502C7.17734 25.8858 7.15602 25.9295 7.13195 25.9716L3.08891 24.2375C3.07359 24.2309 3.05773 24.2326 3.04242 24.2277C2.0865 22.1137 1.59261 19.8201 1.59375 17.5C1.59375 16.0098 1.79719 14.5677 2.17125 13.1945ZM3.82391 25.7425L6.78523 27.0123L9.04984 31.2391C6.90534 29.8368 5.11626 27.955 3.82391 25.7425ZM10.8015 32.2388C10.7911 32.2038 10.7878 32.1672 10.7698 32.1338L7.86203 26.7066C7.90359 26.6831 7.9468 26.6629 7.98234 26.6273L12.3721 22.2841L20.3056 24.4103L23.547 29.8129C23.5743 29.8583 23.6071 29.8971 23.6443 29.9316L20.6644 33.687C19.7965 33.8291 18.9073 33.9062 18 33.9062C15.4188 33.9062 12.9764 33.3052 10.8015 32.2388Z" fill="white"/>
</g>
<defs>
<clipPath id="clip0_3225_2">
<rect width="35" height="35" fill="white" transform="translate(0.5)"/>
</clipPath>
</defs>
</svg>
