<svg width="35" height="35" viewBox="0 0 35 35" fill="none" xmlns="http://www.w3.org/2000/svg">
<path d="M34.6863 0.740827C34.5906 0.683211 34.4817 0.651321 34.37 0.648254C34.2584 0.645188 34.1479 0.67105 34.0492 0.723327L23.3333 6.39657L12.6181 0.723327C12.6097 0.71879 12.6 0.717494 12.5916 0.713605C12.5608 0.699254 12.5289 0.687335 12.4963 0.677957C12.4781 0.672772 12.4606 0.666939 12.4425 0.66305C12.4066 0.656431 12.3701 0.652746 12.3336 0.652031C12.3174 0.651383 12.3012 0.649439 12.2844 0.650087C12.2494 0.652582 12.2147 0.658002 12.1806 0.66629C12.1612 0.670179 12.1418 0.672772 12.123 0.678605L12.11 0.681198L0.443333 4.57009C0.314218 4.61309 0.201915 4.69564 0.122343 4.80604C0.0427708 4.91644 -3.27513e-05 5.04909 1.88024e-08 5.18518V33.0555C7.79364e-05 33.1582 0.0245336 33.2594 0.0713537 33.3507C0.118174 33.442 0.18602 33.521 0.269306 33.581C0.352592 33.641 0.448936 33.6803 0.550408 33.6958C0.65188 33.7113 0.755577 33.7024 0.852963 33.67L12.2902 29.8576L23.0864 34.3032C23.0955 34.3071 23.1058 34.3058 23.1149 34.3091C23.1862 34.3343 23.2588 34.3518 23.3333 34.3518C23.3917 34.3512 23.4497 34.3427 23.5057 34.3266C23.5239 34.3214 23.5407 34.313 23.5589 34.3065C23.5848 34.2968 23.612 34.2896 23.6367 34.2767L34.6552 28.4433C34.8671 28.3312 35 28.1102 35 27.8704V1.29629C35 1.06879 34.8807 0.858142 34.6863 0.740827ZM1.2963 5.65249L11.6667 2.19592V19.6907C11.388 19.7413 11.1131 19.7983 10.8474 19.8683C10.6812 19.9124 10.5393 20.0207 10.4529 20.1695C10.3666 20.3182 10.3428 20.4951 10.3869 20.6613C10.431 20.8276 10.5393 20.9695 10.688 21.0558C10.8367 21.1422 11.0137 21.1659 11.1799 21.1218C11.3355 21.0804 11.5053 21.0596 11.6667 21.0259V28.7L1.2963 32.1559V5.65249ZM12.963 20.8444C13.171 20.8282 13.3726 20.8017 13.5858 20.7971C13.7528 20.7881 13.9098 20.715 14.0242 20.593C14.1385 20.471 14.2014 20.3096 14.1996 20.1425C14.1979 19.9753 14.1316 19.8152 14.0147 19.6957C13.8978 19.5761 13.7393 19.5063 13.5722 19.5008H13.558C13.357 19.5054 13.1594 19.5164 12.963 19.53V2.37286L22.6852 7.51981V21.2567C22.2061 21.2354 21.7293 21.1787 21.2586 21.0868C21.0917 21.0586 20.9204 21.0968 20.7813 21.1932C20.6422 21.2896 20.5463 21.4366 20.5142 21.6027C20.482 21.7689 20.5161 21.941 20.6092 22.0824C20.7023 22.2237 20.847 22.3231 21.0123 22.3592C21.5646 22.4642 22.124 22.5268 22.6858 22.5465V32.736L12.963 28.7324V20.8444ZM33.7037 27.4795L23.9815 32.6265V22.4765C24.1026 22.4226 24.2041 22.3328 24.2722 22.2191C24.3403 22.1054 24.3716 21.9735 24.3619 21.8413C24.3518 21.7267 24.3112 21.6169 24.2443 21.5233C24.1774 21.4298 24.0866 21.3558 23.9815 21.3092V7.51981L33.7037 2.37286V27.4795Z" fill="white"/>
</svg>
