<svg width="35" height="35" viewBox="0 0 35 35" fill="none" xmlns="http://www.w3.org/2000/svg">
<path d="M17.4996 35C7.84927 35 0 27.1493 0 17.4996C0 7.85072 7.84927 0 17.4996 0C27.1486 0 35 7.85072 35 17.4996C35 27.1493 27.1493 35 17.4996 35ZM17.4996 1.12941C8.47164 1.12941 1.12796 8.47381 1.12796 17.4996C1.12796 26.5276 8.47236 33.8699 17.4996 33.8699C26.5255 33.8699 33.8699 26.5276 33.8699 17.4996C33.8699 8.47381 26.5262 1.12941 17.4996 1.12941ZM30.4824 17.4996C30.4824 24.6598 24.6583 30.4838 17.4996 30.4838C10.3395 30.4838 4.51545 24.6598 4.51545 17.4996C4.51545 16.7873 4.57638 16.0881 4.68736 15.4055L4.68374 15.404L4.68736 15.4004C5.69418 9.23691 11.054 4.51763 17.4996 4.51763C23.9439 4.51763 29.3036 9.23763 30.3119 15.4011C30.3119 15.4026 30.3134 15.4026 30.3134 15.4048L30.3119 15.4062C30.4222 16.0881 30.4824 16.7873 30.4824 17.4996ZM28.6269 21.5494C27.8384 20.8552 25.7392 19.1934 23.7096 19.1934C21.651 19.1934 20.3221 20.745 20.3221 23.1452C20.3221 25.4468 21.4464 27.4902 22.063 28.439C23.5719 27.8036 24.9336 26.8638 26.063 25.6784C27.1924 24.4929 28.0652 23.0873 28.6269 21.5494ZM12.9356 28.439C13.5522 27.4866 14.6765 25.4381 14.6765 23.1452C14.6765 20.7457 13.3476 19.1934 11.2904 19.1934C9.25359 19.1934 7.16016 20.8552 6.37168 21.5494C6.93334 23.0873 7.80613 24.4929 8.93551 25.6784C10.0649 26.8638 11.4266 27.8036 12.9356 28.439ZM17.4996 5.64558C12.1297 5.64558 7.58886 9.23763 6.13666 14.1433C9.33193 11.6575 13.5282 10.161 17.4996 10.161C21.4718 10.161 25.6659 11.6575 28.8626 14.1412C27.409 9.23691 22.8681 5.64558 17.4996 5.64558ZM29.2398 15.9466C26.1526 13.0691 21.693 11.2912 17.4996 11.2912C13.3048 11.2912 8.84666 13.0691 5.75802 15.9466C5.68615 16.4615 5.64835 16.9805 5.64486 17.5004C5.64486 18.4934 5.77978 19.4509 6.01117 20.3728C7.08835 19.4915 9.15712 18.0647 11.2897 18.0647C13.9475 18.0647 15.8052 20.1552 15.8052 23.1459C15.8052 25.5745 14.7331 27.6984 14.0273 28.835C16.2898 29.5285 18.7081 29.5285 20.9705 28.835C20.2648 27.6984 19.1927 25.5745 19.1927 23.1459C19.1927 20.1552 21.0482 18.0647 23.7081 18.0647C25.8407 18.0647 27.9095 19.4901 28.9867 20.3728C29.2166 19.4509 29.353 18.4934 29.353 17.5004C29.3502 16.9805 29.3124 16.4614 29.2398 15.9466ZM17.4996 18.6298C16.7511 18.629 16.0335 18.3313 15.5042 17.802C14.9749 17.2728 14.6773 16.5551 14.6765 15.8066C14.6776 15.0584 14.9755 14.3411 15.5047 13.8121C16.034 13.2832 16.7514 12.9857 17.4996 12.9849C18.2476 12.9861 18.9647 13.2837 19.4936 13.8126C20.0225 14.3416 20.3202 15.0586 20.3213 15.8066C20.3208 16.5549 20.0233 17.2725 19.4943 17.8017C18.9653 18.331 18.248 18.6288 17.4996 18.6298ZM17.4996 14.1121C17.0506 14.1127 16.6201 14.2914 16.3026 14.6089C15.9851 14.9264 15.8065 15.3569 15.8059 15.8059C15.8065 16.2549 15.9851 16.6854 16.3026 17.0029C16.6201 17.3204 17.0506 17.4991 17.4996 17.4996C17.9487 17.4991 18.3791 17.3204 18.6967 17.0029C19.0142 16.6854 19.1928 16.2549 19.1934 15.8059C19.1928 15.3569 19.0142 14.9264 18.6967 14.6089C18.3791 14.2914 17.9487 14.1127 17.4996 14.1121ZM33.9105 8.11403C32.8435 5.44393 29.5387 2.13405 27.4075 1.06848L27.9124 0.0587553C30.2684 1.23749 33.7821 4.75192 34.9594 7.69331L33.9105 8.11403ZM12.4184 16.3717V15.2423H13.5478V16.3717H12.4184ZM21.4515 16.3717V15.2423H22.5794V16.3717H21.4515ZM15.8059 32.7419V31.6125H16.9338V32.7419H15.8059ZM18.064 32.7419V31.6125H19.1934V32.7419H18.064ZM7.08545 34.9405C4.72944 33.7618 1.21718 30.2474 0.0398955 27.306L1.08879 26.8874C2.15581 29.5553 5.46061 32.8652 7.59031 33.9308L7.08545 34.9405Z" fill="white"/>
</svg>
